<svg xmlns="http://www.w3.org/2000/svg" viewBox="0 0 628 808.36">
  <defs>
    <style>
      .cls-1 {
        fill: #f7c530;
      }

      .cls-2 {
        fill: #f2a734;
      }

      .cls-3 {
        fill: #895318;
      }

      .cls-4, .cls-6, .cls-7 {
        fill: #c05339;
      }

      .cls-4, .cls-7 {
        stroke: #f2a734;
      }

      .cls-11, .cls-4, .cls-6, .cls-7 {
        stroke-miterlimit: 10;
      }

      .cls-4 {
        stroke-width: 30px;
      }

      .cls-5 {
        fill: #e5aa95;
      }

      .cls-11, .cls-6, .cls-8 {
        stroke: #000;
      }

      .cls-6 {
        stroke-width: 8px;
      }

      .cls-7 {
        stroke-width: 18px;
      }

      .cls-8 {
        fill: none;
        stroke-linecap: round;
        stroke-linejoin: round;
        stroke-width: 23px;
      }

      .cls-9 {
        fill: #b58f3a;
      }

      .cls-10 {
        fill: #916a26;
      }

      .cls-11 {
        fill: #baba32;
        stroke-width: 3px;
      }

      .cls-12 {
        fill: #d1cf7d;
      }
    </style>
  </defs>
  <title>pizza</title>
  <g id="Layer_3" data-name="Layer 3">
    <path class="cls-1" d="M540,681c-154.09,0-279,124.91-279,279,0,127.41,190.75,371.61,256.8,452.35a28.68,28.68,0,0,0,44.4,0C628.25,1331.61,819,1087.41,819,960,819,805.91,694.09,681,540,681Zm0,377a72,72,0,1,1,72-72A72,72,0,0,1,540,1058Z" transform="translate(-226 -646)"/>
    <circle class="cls-2" cx="386" cy="660" r="16"/>
    <circle class="cls-2" cx="437.5" cy="256.5" r="25.5"/>
    <circle class="cls-2" cx="381" cy="479" r="24"/>
    <circle class="cls-2" cx="191.5" cy="578.5" r="21.5"/>
    <circle class="cls-2" cx="242" cy="225" r="20"/>
  </g>
  <g id="Layer_10" data-name="Layer 10">
    <path class="cls-2" d="M740,871s14,50,10,78-6,78-16,109-23,88-41,120-46.14,119.1-76.07,165S665,1319,665,1319l117-179,51-141-2-133-42,.67L744,857Z" transform="translate(-226 -646)"/>
  </g>
  <g id="Layer_11" data-name="Layer 11">
    <path class="cls-2" d="M300,880c1.58-7.28,2-9,2-9s-7.43,27.4-10,57a265.5,265.5,0,0,0,1,55c2.76,24.18,7.89,39.8,27,99l-40,7-34-87-7-69,22-70.79Z" transform="translate(-226 -646)"/>
  </g>
  <g id="Layer_4" data-name="Layer 4">
    <g id="Layer_5" data-name="Layer 5">
      <polygon class="cls-3" points="585.5 225.5 452.5 196.95 324.5 168.5 226.79 180.53 114.18 215.62 29.5 225.5 103.5 100.5 204.5 39.5 307.5 16.5 387.5 27.5 469.5 61.5 537.5 121.5 580.5 179.5 585.5 225.5"/>
    </g>
    <g id="ingrediente">
      <g>
        <circle class="cls-4" cx="534.25" cy="355.75" r="70.25"/>
        <circle class="cls-5" cx="505.38" cy="310.19" r="11.13"/>
        <circle class="cls-5" cx="547.12" cy="307.41" r="11.13"/>
        <circle class="cls-5" cx="485.21" cy="344.27" r="11.13"/>
        <circle class="cls-5" cx="516.51" cy="347.75" r="11.13"/>
        <circle class="cls-5" cx="587.46" cy="343.58" r="11.13"/>
        <circle class="cls-5" cx="489.39" cy="378.36" r="11.13"/>
        <circle class="cls-5" cx="514.43" cy="401.31" r="11.13"/>
        <circle class="cls-5" cx="554.07" cy="402" r="11.13"/>
        <circle class="cls-5" cx="569.37" cy="375.57" r="11.13"/>
        <circle class="cls-5" cx="554.77" cy="336.62" r="11.13"/>
        <circle class="cls-5" cx="535.99" cy="371.4" r="11.13"/>
      </g>
      <g>
        <circle class="cls-6" cx="534.25" cy="355.75" r="70.25"/>
        <circle class="cls-5" cx="505.38" cy="310.19" r="11.13"/>
        <circle class="cls-5" cx="547.12" cy="307.41" r="11.13"/>
        <circle class="cls-5" cx="485.21" cy="344.27" r="11.13"/>
        <circle class="cls-5" cx="516.51" cy="347.75" r="11.13"/>
        <circle class="cls-5" cx="587.46" cy="343.58" r="11.13"/>
        <circle class="cls-5" cx="489.39" cy="378.36" r="11.13"/>
        <circle class="cls-5" cx="514.43" cy="401.31" r="11.13"/>
        <circle class="cls-5" cx="554.07" cy="402" r="11.13"/>
        <circle class="cls-5" cx="569.37" cy="375.57" r="11.13"/>
        <circle class="cls-5" cx="554.77" cy="336.62" r="11.13"/>
        <circle class="cls-5" cx="535.99" cy="371.4" r="11.13"/>
      </g>
      <g>
        <circle class="cls-7" cx="111.25" cy="401.25" r="77.75"/>
        <circle class="cls-5" cx="79.3" cy="350.83" r="12.32"/>
        <circle class="cls-5" cx="125.49" cy="347.75" r="12.32"/>
        <circle class="cls-5" cx="56.98" cy="388.55" r="12.32"/>
        <circle class="cls-5" cx="91.62" cy="392.4" r="12.32"/>
        <circle class="cls-5" cx="170.14" cy="387.78" r="12.32"/>
        <circle class="cls-5" cx="61.6" cy="426.27" r="12.32"/>
        <circle class="cls-5" cx="89.31" cy="451.67" r="12.32"/>
        <circle class="cls-5" cx="133.19" cy="452.44" r="12.32"/>
        <circle class="cls-5" cx="150.13" cy="423.19" r="12.32"/>
        <circle class="cls-5" cx="133.96" cy="380.08" r="12.32"/>
        <circle class="cls-5" cx="113.17" cy="418.57" r="12.32"/>
      </g>
      <g>
        <circle class="cls-6" cx="111.25" cy="401.25" r="77.75"/>
        <circle class="cls-5" cx="79.3" cy="350.83" r="12.32"/>
        <circle class="cls-5" cx="125.49" cy="347.75" r="12.32"/>
        <circle class="cls-5" cx="56.98" cy="388.55" r="12.32"/>
        <circle class="cls-5" cx="91.62" cy="392.4" r="12.32"/>
        <circle class="cls-5" cx="170.14" cy="387.78" r="12.32"/>
        <circle class="cls-5" cx="61.6" cy="426.27" r="12.32"/>
        <circle class="cls-5" cx="89.31" cy="451.67" r="12.32"/>
        <circle class="cls-5" cx="133.19" cy="452.44" r="12.32"/>
        <circle class="cls-5" cx="150.13" cy="423.19" r="12.32"/>
        <circle class="cls-5" cx="133.96" cy="380.08" r="12.32"/>
        <circle class="cls-5" cx="113.17" cy="418.57" r="12.32"/>
      </g>
      <g>
        <circle class="cls-4" cx="308.75" cy="597.25" r="56.75"/>
        <circle class="cls-5" cx="285.43" cy="560.45" r="8.99"/>
        <circle class="cls-5" cx="319.14" cy="558.2" r="8.99"/>
        <circle class="cls-5" cx="269.14" cy="587.98" r="8.99"/>
        <circle class="cls-5" cx="294.42" cy="590.79" r="8.99"/>
        <circle class="cls-5" cx="351.73" cy="587.42" r="8.99"/>
        <circle class="cls-5" cx="272.51" cy="615.51" r="8.99"/>
        <circle class="cls-5" cx="292.74" cy="634.05" r="8.99"/>
        <circle class="cls-5" cx="324.76" cy="634.62" r="8.99"/>
        <circle class="cls-5" cx="337.13" cy="613.26" r="8.99"/>
        <circle class="cls-5" cx="325.33" cy="581.8" r="8.99"/>
        <circle class="cls-5" cx="310.15" cy="609.89" r="8.99"/>
      </g>
      <g>
        <circle class="cls-6" cx="308.75" cy="597.25" r="56.75"/>
        <circle class="cls-5" cx="285.43" cy="560.45" r="8.99"/>
        <circle class="cls-5" cx="319.14" cy="558.2" r="8.99"/>
        <circle class="cls-5" cx="269.14" cy="587.98" r="8.99"/>
        <circle class="cls-5" cx="294.42" cy="590.79" r="8.99"/>
        <circle class="cls-5" cx="351.73" cy="587.42" r="8.99"/>
        <circle class="cls-5" cx="272.51" cy="615.51" r="8.99"/>
        <circle class="cls-5" cx="292.74" cy="634.05" r="8.99"/>
        <circle class="cls-5" cx="324.76" cy="634.62" r="8.99"/>
        <circle class="cls-5" cx="337.13" cy="613.26" r="8.99"/>
        <circle class="cls-5" cx="325.33" cy="581.8" r="8.99"/>
        <circle class="cls-5" cx="310.15" cy="609.89" r="8.99"/>
      </g>
    </g>
    <path class="cls-8" d="M806.55,877.35" transform="translate(-226 -646)"/>
    <path class="cls-8" d="M804.69,871.56l-14,0a100.18,100.18,0,0,1-27.74-4L621.37,826.3a300,300,0,0,0-173.24,1.64L323,867a100.13,100.13,0,0,1-29.6,4.54l-18.05,0" transform="translate(-226 -646)"/>
    <path class="cls-2" d="M539,915a72,72,0,1,1-72,72,72,72,0,0,1,72-72m0-40a112,112,0,1,0,79.2,32.8A111.29,111.29,0,0,0,539,875Z" transform="translate(-226 -646)"/>
    <path d="M540,914a72,72,0,1,1-72,72,72,72,0,0,1,72-72m0-23a95,95,0,1,0,95,95,95.11,95.11,0,0,0-95-95Z" transform="translate(-226 -646)"/>
  </g>
  <g id="Layer_8" data-name="Layer 8">
    <path class="cls-9" d="M311,843s15-88,92-134c49.17-29.37,102-46,102-46l131,11,104,58,65,74-11.65,37A232.94,232.94,0,0,1,743,834c-27-8-93-31-117-36s-34-11-86-13c-21-.81-63,6-72,9-83,28-83.22,27.68-97,31C355,828.87,311,843,311,843Z" transform="translate(-226 -646)"/>
    <circle class="cls-3" cx="147.5" cy="151.5" r="18.5"/>
    <circle class="cls-3" cx="180" cy="109" r="11"/>
    <circle class="cls-3" cx="404.5" cy="115.5" r="18.5"/>
    <circle class="cls-3" cx="260.5" cy="67.5" r="18.5"/>
    <circle class="cls-3" cx="463" cy="146" r="11"/>
    <circle class="cls-3" cx="324" cy="115" r="11"/>
    <circle class="cls-3" cx="346" cy="80" r="11"/>
    <circle class="cls-3" cx="237" cy="127" r="11"/>
  </g>
  <g id="Layer_9" data-name="Layer 9">
    <path class="cls-10" d="M533.5,681s71.1,22,132.5,68c36.36,27.26,57,60.56,68,82l5,2-.41-.33,6.64,2,6.4,1.71,4.21,1,4.33,1,4.61.93,5.63,1,5.89.92,4.22.57,5.19.59,3.75.35,3.89.27L797,810l-47-59-89.24-64.12L567,659C538.54,668.23,533.5,681,533.5,681Z" transform="translate(-226 -646)"/>
  </g>
  <g id="Layer_2" data-name="Layer 2">
    <g id="margini">
      <path d="M540,681c154.09,0,279,124.91,279,279,0,124.49-182.12,360.49-252.08,446.55a34.69,34.69,0,0,1-53.84,0C443.12,1320.49,261,1084.49,261,960a281.15,281.15,0,0,1,3.77-46,276.54,276.54,0,0,1,8.68-36.65C308.67,763.61,414.69,681,540,681m0-35A313.63,313.63,0,0,0,230.25,908.27,316.83,316.83,0,0,0,226,960c0,34.29,10.65,75,32.55,124.38,17.26,38.93,41.73,83.37,72.72,132.09,55.78,87.69,120.83,170.56,154.65,212.16a69.7,69.7,0,0,0,108.16,0C627.9,1387,693,1304.16,748.73,1216.47c31-48.72,55.46-93.16,72.72-132.09C843.35,1035,854,994.29,854,960A313.77,313.77,0,0,0,540,646Z" transform="translate(-226 -646)"/>
    </g>
  </g>
  <g id="Layer_7" data-name="Layer 7">
    <g>
      <ellipse class="cls-11" cx="665.5" cy="1215.47" rx="28.96" ry="20.42" transform="translate(-744.58 -150.41) rotate(-30)"/>
      <ellipse class="cls-12" cx="675.83" cy="1206.28" rx="10.94" ry="7.71" transform="translate(-738.59 -146.47) rotate(-30)"/>
    </g>
    <g>
      <ellipse class="cls-11" cx="363.47" cy="909.48" rx="30.74" ry="21.68" transform="translate(-632.05 -342.42) rotate(-30)"/>
      <ellipse class="cls-12" cx="374.44" cy="899.72" rx="11.61" ry="8.19" transform="translate(-625.69 -338.24) rotate(-30)"/>
    </g>
    <g>
      <ellipse class="cls-11" cx="451.86" cy="1131.06" rx="26.96" ry="19.02" transform="translate(-730.99 -268.54) rotate(-30)"/>
      <ellipse class="cls-12" cx="461.48" cy="1122.5" rx="10.19" ry="7.18" transform="translate(-725.42 -264.87) rotate(-30)"/>
    </g>
    <g>
      <ellipse class="cls-11" cx="533.88" cy="1358.34" rx="29.45" ry="20.77" transform="translate(-833.64 -197.07) rotate(-30)"/>
      <ellipse class="cls-12" cx="544.39" cy="1348.99" rx="11.12" ry="7.84" transform="translate(-827.56 -193.07) rotate(-30)"/>
    </g>
  </g>
</svg>
